<svg xmlns="http://www.w3.org/2000/svg" viewBox="0 0 256 256" role="img" aria-label="Red LAN Sync">
  <defs>
    <clipPath id="icon-shape">
      <rect x="18" y="18" width="220" height="220" rx="46"/>
    </clipPath>
    <filter id="soft-shadow" x="-20%" y="-20%" width="140%" height="140%">
      <feDropShadow dx="0" dy="8" stdDeviation="10" flood-color="#162126" flood-opacity="0.18"/>
    </filter>
  </defs>
  <rect x="18" y="18" width="220" height="220" rx="46" fill="#edf7f6" filter="url(#soft-shadow)"/>
  <g clip-path="url(#icon-shape)">
    <rect x="18" y="18" width="220" height="220" rx="46" fill="#edf7f6"/>
    <g fill="none" stroke="#ffffff" stroke-width="3.2" opacity="0.72">
      <circle cx="128" cy="120" r="28"/>
      <circle cx="128" cy="120" r="56"/>
      <circle cx="128" cy="120" r="84"/>
      <path d="M44 120h168M128 36v168M68 60l120 120M188 60 68 180"/>
      <path d="M58 96c34-18 105-18 140 0M58 144c34 18 105 18 140 0"/>
    </g>
    <path fill="#087f5b" d="M78 72h58c29 0 48 18 48 45 0 19-10 34-27 41l31 40h-39l-27-35h-11v35H78V72Zm33 29v35h25c10 0 16-7 16-18 0-10-6-17-16-17h-25Z"/>
    <path fill="#55c7a3" opacity="0.9" d="M78 72h33v126H78z"/>
  </g>
  <rect x="18" y="18" width="220" height="220" rx="46" fill="none" stroke="#ffffff" stroke-width="10"/>
  <rect x="22" y="22" width="212" height="212" rx="42" fill="none" stroke="#d6e4e6" stroke-width="2"/>
</svg>
